<?xml version="1.0" encoding="utf-8"?>
<!-- Generator: Adobe Illustrator 16.0.0, SVG Export Plug-In . SVG Version: 6.00 Build 0)  -->
<!DOCTYPE svg PUBLIC "-//W3C//DTD SVG 1.0//EN" "http://www.w3.org/TR/2001/REC-SVG-20010904/DTD/svg10.dtd">
<svg version="1.0" id="Ebene_1" xmlns="http://www.w3.org/2000/svg" xmlns:xlink="http://www.w3.org/1999/xlink" x="0px" y="0px"
	 width="920px" height="571px" viewBox="0 0 920 571" enable-background="new 0 0 920 571" xml:space="preserve">
<g id="Raeume" opacity="0.7">
	<polyline fill="#FFF094" points="27.476,36.237 285.476,36.237 285.476,157.889 27.476,157.889 	"/>
	<rect x="27.476" y="157.889" fill="#FF8080" width="258" height="231"/>
	<polygon fill="#A3E089" points="285.476,113.237 391.476,113.237 391.476,149.737 449.476,149.737 450.976,146.737 
		481.809,146.737 483.309,149.737 580.476,149.737 580.476,28.627 665.226,28.627 665.226,198.237 285.476,198.237 	"/>
	<rect x="665.226" y="28.627" fill="#9AE1E8" width="87.75" height="122.859"/>
	<polygon fill="#34B2EA" points="752.976,28.627 752.976,151.487 665.226,151.487 665.226,198.237 895.226,198.237 895.226,28.627 	
		"/>
	<polygon fill="#D8D8D8" points="285.476,198.237 285.476,280.237 626.31,280.237 626.31,381.903 673.783,381.903 673.783,198.237 	
		"/>
	<polygon fill="#F7B94B" points="671.476,381.903 656.476,543.237 555.726,543.237 555.726,547.237 543.476,547.237 
		543.476,552.237 523.976,552.237 523.976,548.987 511.726,548.987 511.726,381.903 	"/>
</g>
<g id="Mauern">
	<polygon fill="#A0A0A0" stroke="#000000" stroke-width="0.5" stroke-miterlimit="10" points="451.882,148.454 451.988,151.332 
		398.79,151.758 398.576,166.79 381.838,166.79 382.158,149.413 390.154,149.413 390.367,145.895 393.352,145.789 393.352,148.134 
		444.312,148.134 443.99,101.759 417.233,101.759 417.125,98.667 443.99,98.667 444.312,72.44 449.429,72.228 449.429,114.338 
		499.643,114.445 499.643,74.253 499.643,45.469 465.528,45.362 465.528,34.701 435.356,34.701 434.93,45.575 393.352,45.895 
		393.298,98.667 395.644,98.881 395.644,101.866 393.405,102.025 393.405,124.733 390.207,124.733 390.207,115.139 361.102,114.979 
		361.102,111.621 390.207,111.94 390.207,45.735 372.136,45.735 372.136,34.701 341.112,34.701 341.353,45.575 332.317,45.575 
		332.298,34.98 301.372,35 301.293,45.575 291.059,45.575 290.899,111.621 332.317,112.26 332.317,114.979 290.259,114.979 
		290.259,119.456 279.705,119.456 279.705,50.373 235.247,50.373 235.035,39.178 201.559,39.178 201.559,50.373 187.913,50.373 
		187.913,39.178 154.65,39.178 154.649,50.373 141.857,50.373 141.857,39.178 108.274,39.178 108.313,50.373 41.109,50.373 
		41.109,86.939 30.875,86.833 30.715,88.272 30.395,116.258 30.555,117.377 40.95,117.537 41.27,147.921 224.054,148.161 
		224.054,169.03 166.484,169.03 166.324,178.465 67.016,178.465 66.856,207.25 40.95,207.25 40.95,267.859 45.107,267.859 
		45.107,286.249 41.27,286.249 41.216,313.062 31.088,313.062 31.088,314.733 30.981,342.382 31.408,343.552 41.323,343.552 
		41.429,378.521 98.999,378.521 98.999,389.074 100.278,389.074 128.424,389.074 129.49,389.074 129.596,378.2 187.166,378.094 
		187.166,389.074 188.445,389.074 216.698,389.074 217.764,389.074 217.55,377.669 226.772,377.883 226.932,389.074 
		256.037,389.074 257.156,389.074 257.316,377.722 280.344,377.883 280.344,287.049 274.747,286.889 274.587,258.903 289.3,258.424 
		289.459,267.059 294.417,267.059 294.577,272.176 314.886,272.496 314.726,277.773 340.633,277.934 340.473,272.496 
		400.761,272.656 400.761,266.739 419.152,267.059 419.312,278.573 421.551,278.573 421.39,281.292 450.655,281.292 
		450.815,278.893 453.054,278.893 453.214,274.255 569.951,274.415 570.113,279.853 598.684,280.012 598.684,274.095 
		615.849,274.415 615.849,267.059 634.239,267.059 634.239,285.449 629.281,285.449 629.442,375.162 635.037,375.162 
		635.037,390.515 514.142,390.515 513.822,546.433 525.976,546.433 525.976,550.593 541.326,550.593 541.326,546.433 
		553.481,546.433 553.481,542.274 654.867,541.315 656.468,522.128 615.21,521.806 615.529,514.449 656.468,514.609 
		668.302,390.677 663.662,390.515 663.662,375.322 670.06,375.322 670.06,245.95 672.139,245.95 672.139,221.003 669.579,221.003 
		669.579,201.973 612.81,201.493 612.651,194.937 663.344,195.097 663.344,189.34 666.222,189.34 666.383,196.536 892.505,197.176 
		892.505,166.792 886.745,166.632 886.588,149.84 892.505,149.84 892.505,43.976 875.393,43.816 874.912,34.701 840.851,34.381 
		840.531,43.496 793.516,43.496 793.196,34.541 759.294,34.381 758.814,43.496 754.656,43.816 754.495,50.373 751.138,50.531 
		751.138,43.816 711.319,43.656 711.319,34.221 677.416,34.221 677.416,43.656 666.541,43.656 666.541,65.085 663.344,65.085 
		663.344,50.053 630.08,50.053 630.08,44.136 630.08,34.541 626.884,34.541 626.884,28.627 679.815,28.627 708.921,28.627 
		761.693,28.627 790.637,28.627 843.73,28.627 872.355,28.627 897.62,28.627 897.62,149.84 897.62,201.813 673.739,201.813 
		673.739,221.056 673.739,246.323 673.739,375.748 673.844,390.248 658.706,545.474 557.427,545.474 557.427,549.634 
		544.847,549.634 544.847,553.683 522.456,553.683 522.456,550.272 510.305,550.272 510.305,390.463 510.305,375.322 
		621.926,375.322 621.926,285.77 289.939,285.77 289.939,394.831 25.652,394.302 24.798,87.898 24.798,33.207 109.554,32.888 
		259.555,32.462 259.555,28.627 302.413,28.627 331.198,28.627 342.499,28.627 371.071,28.627 436.317,28.627 464.409,28.627 
		517.125,28.627 545.593,28.627 598.684,28.627 598.684,34.701 595.594,34.701 595.594,43.766 582.053,43.766 582.053,151.121 
		575.763,150.908 576.081,148.029 578.642,148.136 578.642,107.838 575.763,107.731 575.763,104.747 578.642,104.64 578.642,45.363 
		546.765,45.577 546.87,34.701 545.593,34.701 516.488,34.701 516.166,45.362 507.531,45.362 507.638,104.637 554.548,104.637 
		554.548,107.729 507.638,107.835 507.852,148.134 554.548,148.348 554.548,151.12 499.643,151.225 499.643,166.79 482.692,166.79 
		482.586,151.012 480.665,151.012 480.665,148.561 	"/>
	<path fill="#A0A0A0" stroke="#000000" stroke-width="0.5" stroke-miterlimit="10" d="M108.274,39.178"/>
	<polygon fill="#A0A0A0" stroke="#000000" stroke-width="0.5" stroke-miterlimit="10" points="663.398,93.977 666.489,93.977 
		666.489,149.521 751.461,149.521 751.461,79.69 754.657,79.69 754.657,149.521 767.879,149.521 767.879,166.258 751.354,166.258 
		751.354,153.465 666.598,153.465 666.598,160.181 663.398,160.181 	"/>
	<polygon fill="#A0A0A0" stroke="#000000" stroke-width="0.5" stroke-miterlimit="10" points="249.214,151.014 280.237,151.014 
		280.237,147.496 290.899,147.496 290.899,195.47 416.274,195.47 416.274,192.912 461.797,192.912 461.797,195.47 584.076,195.47 
		584.076,201.547 289.193,201.547 289.193,233.103 280.131,233.103 280.131,169.243 249.214,169.243 	"/>
	
		<rect x="616.808" y="149.521" fill="#A0A0A0" stroke="#000000" stroke-width="0.5" stroke-miterlimit="10" width="16.312" height="16.735"/>
	
		<rect x="149.053" y="267.859" fill="#A0A0A0" stroke="#000000" stroke-width="0.5" stroke-miterlimit="10" width="17.91" height="17.911"/>
</g>
</svg>
