<?xml version="1.0" encoding="utf-8"?>
<!-- Generator: Adobe Illustrator 16.0.0, SVG Export Plug-In . SVG Version: 6.00 Build 0)  -->
<!DOCTYPE svg PUBLIC "-//W3C//DTD SVG 1.0//EN" "http://www.w3.org/TR/2001/REC-SVG-20010904/DTD/svg10.dtd">
<svg version="1.0" xmlns="http://www.w3.org/2000/svg" xmlns:xlink="http://www.w3.org/1999/xlink" x="0px" y="0px"
	 width="920.954px" height="571.472px" viewBox="0 0 920.954 571.472" enable-background="new 0 0 920.954 571.472"
	 xml:space="preserve">
<g id="Ebene_2" display="none">
</g>
<g id="Ebene_1">
	
		<image display="none" overflow="visible" width="6844" height="4964" xlink:href="HfTL_E_-1.jpg"  transform="matrix(0.6807 0 0 0.6807 -2608.7437 -455.3389)">
	</image>
	
		<image display="none" overflow="visible" width="2097" height="3376" xlink:href="160816.JPG"  transform="matrix(-5.358847e-04 0.307 -0.307 -5.358847e-04 983.2544 -157.6333)">
	</image>
	<polyline stroke="#000000" stroke-miterlimit="10" points="451.881,148.454 451.988,151.332 398.79,151.758 398.576,166.79 
		381.838,166.79 382.158,149.413 390.154,149.413 390.367,145.895 393.352,145.789 393.352,148.134 444.312,148.134 
		443.992,101.759 417.233,101.759 417.125,98.667 443.992,98.667 444.312,72.44 449.429,72.228 449.429,114.338 499.643,114.445 
		499.643,74.253 499.643,45.469 465.528,45.362 465.528,34.701 435.356,34.701 434.93,45.575 393.352,45.895 393.298,98.667 
		395.644,98.881 395.644,101.866 393.405,102.025 393.405,124.733 390.207,124.733 390.207,115.139 361.102,114.979 
		361.102,111.621 390.207,111.94 390.207,45.735 372.136,45.735 372.136,34.701 341.112,34.701 341.353,45.575 332.317,45.575 
		332.298,34.98 301.372,35 301.293,45.575 291.059,45.575 290.899,111.621 332.317,112.26 332.317,114.979 290.259,114.979 
		290.259,119.456 279.705,119.456 279.705,50.373 235.247,50.373 235.035,39.178 201.559,39.178 201.559,50.373 187.913,50.373 
		187.913,39.178 154.65,39.178 154.649,50.373 141.857,50.373 141.857,39.178 108.274,39.178 108.313,50.373 41.109,50.373 
		41.109,86.939 30.875,86.833 30.715,88.272 30.395,116.258 30.555,117.377 40.95,117.537 41.27,147.921 224.054,148.161 
		224.054,169.03 166.484,169.03 166.324,178.465 67.016,178.465 66.856,207.25 40.95,207.25 40.95,267.859 45.107,267.859 
		45.107,286.249 41.27,286.249 41.216,313.062 31.088,313.062 31.088,314.733 30.981,342.38 31.408,343.552 41.323,343.552 
		41.429,378.521 98.999,378.521 98.999,389.075 100.278,389.075 128.424,389.075 129.49,389.075 129.596,378.201 187.166,378.093 
		187.166,389.075 188.445,389.075 216.698,389.075 217.764,389.075 217.55,377.667 226.772,377.881 226.932,389.075 
		256.037,389.075 257.156,389.075 257.316,377.722 280.344,377.881 280.344,287.049 274.747,286.889 274.587,258.903 289.3,258.424 
		289.459,267.059 294.417,267.059 294.577,272.176 314.886,272.496 314.726,277.773 340.633,277.934 340.473,272.496 
		400.761,272.656 400.761,266.739 419.152,267.059 419.312,278.573 421.55,278.573 421.39,281.292 450.655,281.292 450.815,278.893 
		453.054,278.893 453.213,274.255 569.953,274.415 570.113,279.853 598.684,280.012 598.684,274.095 615.849,274.415 
		615.849,267.059 634.239,267.059 634.239,285.449 629.282,285.449 629.442,375.163 635.039,375.163 635.039,390.515 
		514.142,390.515 513.822,546.433 525.976,546.433 525.976,550.591 541.328,550.591 541.328,546.433 553.481,546.433 
		553.481,542.274 654.869,541.315 656.467,522.126 615.209,521.806 615.529,514.45 656.467,514.609 668.301,390.675 
		663.664,390.515 663.664,375.322 670.06,375.322 670.06,245.95 672.139,245.95 672.139,221.003 669.581,221.003 669.581,201.973 
		612.81,201.493 612.651,194.937 663.344,195.097 663.344,189.34 666.222,189.34 666.382,196.536 892.504,197.176 892.504,166.792 
		886.747,166.632 886.587,149.84 892.504,149.84 892.504,43.976 875.393,43.816 874.914,34.701 840.851,34.381 840.531,43.496 
		793.516,43.496 793.196,34.541 759.293,34.381 758.814,43.496 754.656,43.816 754.497,50.373 751.138,50.532 751.138,43.816 
		711.319,43.656 711.319,34.221 677.417,34.221 677.417,43.656 666.542,43.656 666.542,65.085 663.344,65.085 663.344,50.053 
		630.082,50.053 630.082,44.136 630.082,34.541 626.883,34.541 626.883,28.627 679.815,28.627 708.92,28.627 761.693,28.627 
		790.637,28.627 843.73,28.627 872.355,28.627 897.622,28.627 897.622,149.84 897.622,201.813 673.739,201.813 673.739,221.056 
		673.739,246.323 673.739,375.749 673.844,390.249 658.708,545.474 557.427,545.474 557.427,549.632 544.847,549.632 
		544.847,553.683 522.458,553.683 522.458,550.272 510.305,550.272 510.305,390.461 510.305,375.322 621.925,375.322 
		621.925,285.77 289.939,285.77 289.939,394.832 25.652,394.3 24.798,87.898 24.798,33.207 109.554,32.888 259.555,32.462 
		259.555,28.627 302.413,28.627 331.198,28.627 342.499,28.627 371.071,28.627 436.317,28.627 464.411,28.627 517.126,28.627 
		545.592,28.627 598.684,28.627 598.684,34.701 595.593,34.701 595.593,43.766 582.053,43.766 582.053,151.121 575.763,150.908 
		576.083,148.029 578.642,148.136 578.642,107.838 575.763,107.731 575.763,104.747 578.642,104.64 578.642,45.363 546.765,45.577 
		546.872,34.701 545.592,34.701 516.488,34.701 516.167,45.362 507.533,45.362 507.638,104.637 554.547,104.637 554.547,107.729 
		507.638,107.835 507.852,148.134 554.547,148.348 554.547,151.12 499.643,151.225 499.643,166.79 482.692,166.79 482.585,151.012 
		480.667,151.012 480.667,148.561 	"/>
	<path fill="none" stroke="#000000" stroke-miterlimit="10" d="M108.274,39.178"/>
	<polygon stroke="#000000" stroke-miterlimit="10" points="663.398,93.977 666.489,93.977 666.489,149.521 751.46,149.521 
		751.46,79.69 754.659,79.69 754.659,149.521 767.878,149.521 767.878,166.258 751.354,166.258 751.354,153.465 666.598,153.465 
		666.598,160.181 663.398,160.181 	"/>
	<polygon stroke="#000000" stroke-miterlimit="10" points="249.214,151.014 280.237,151.014 280.237,147.496 290.899,147.496 
		290.899,195.47 416.274,195.47 416.274,192.912 461.796,192.912 461.796,195.47 584.078,195.47 584.078,201.547 289.193,201.547 
		289.193,233.103 280.131,233.103 280.131,169.243 249.214,169.243 	"/>
	<rect x="616.808" y="149.521" stroke="#000000" stroke-miterlimit="10" width="16.312" height="16.737"/>
	<rect x="149.053" y="267.859" stroke="#000000" stroke-miterlimit="10" width="17.911" height="17.911"/>
	<line fill="none" stroke="#000000" stroke-miterlimit="10" x1="39.083" y1="-112.103" x2="281.73" y2="-112.103"/>
</g>
</svg>
