<?xml version="1.0" encoding="utf-8"?>
<!-- Generator: Adobe Illustrator 16.0.0, SVG Export Plug-In . SVG Version: 6.00 Build 0)  -->
<!DOCTYPE svg PUBLIC "-//W3C//DTD SVG 1.0//EN" "http://www.w3.org/TR/2001/REC-SVG-20010904/DTD/svg10.dtd">
<svg version="1.0" id="Labels" xmlns="http://www.w3.org/2000/svg" xmlns:xlink="http://www.w3.org/1999/xlink" x="0px" y="0px"
	 width="920px" height="571px" viewBox="0 0 920 571" enable-background="new 0 0 920 571" xml:space="preserve">
<text transform="matrix(1 0 0 1 121.0002 99.0632)" font-family="'ArialMT'" font-size="10">gelber Raum</text>
<text transform="matrix(1 0 0 1 132.7502 241.3533)" font-family="'ArialMT'" font-size="10">roter Raum</text>
<text transform="matrix(1 0 0 1 332.5002 160.3132)" font-family="'ArialMT'" font-size="10">Flur</text>
<text transform="matrix(1 0 0 1 311.0002 79.1902)" font-family="'ArialMT'" font-size="10">kleines Lager</text>
<text transform="matrix(1 0 0 1 414.5002 64.0632)" font-family="'ArialMT'" font-size="10">Toilette Damen</text>
<text transform="matrix(1 0 0 1 526.6038 71.5632)"><tspan x="0" y="0" font-family="'ArialMT'" font-size="10">Toilette</tspan><tspan x="1.113" y="12" font-family="'ArialMT'" font-size="10">Herren</tspan></text>
<text transform="matrix(1 0 0 1 455.3342 241.5632)" font-family="'ArialMT'" font-size="10">Zwischengang</text>
<text transform="matrix(1 0 0 1 799.8225 106.0632)"><tspan x="0" y="0" font-family="'ArialMT'" font-size="10">Stura-Büro</tspan><tspan x="10.281" y="12" font-family="'ArialMT'" font-size="10">CK.23</tspan></text>
<text transform="matrix(1 0 0 1 684.2502 73.3132)" font-family="'ArialMT'" font-size="10">Stura-Lager</text>
<text transform="matrix(1 0 0 1 557.0002 463.5632)" font-family="'ArialMT'" font-size="10">großes Lager</text>
<text transform="matrix(1 0 0 1 611.5002 99.0632)" font-family="'ArialMT'" font-size="10">Flur</text>
<text transform="matrix(1 0 0 1 408.3342 295.2302)" font-family="'ArialMT'" font-size="8">Treppenaufgang</text>
<text transform="matrix(1 0 0 1 598.3342 22.5632)" font-family="'ArialMT'" font-size="8">Eingang</text>
</svg>
