<?xml version="1.0" encoding="utf-8"?>
<!-- Generator: Adobe Illustrator 19.0.0, SVG Export Plug-In . SVG Version: 6.00 Build 0)  -->
<svg version="1.0" id="Ebene_1" xmlns="http://www.w3.org/2000/svg" xmlns:xlink="http://www.w3.org/1999/xlink" x="0px" y="0px"
	 viewBox="0 0 120 20" style="enable-background:new 0 0 120 20;" xml:space="preserve">
<style type="text/css">
	.st0{fill:#303030;}
	.st1{fill-rule:evenodd;clip-rule:evenodd;fill:#303030;}
</style>
<g id="XMLID_5_">
	<path id="XMLID_6_" class="st0" d="M14.3,4.3c-0.4-0.6-0.8-1-1.3-1.4c-0.5-0.4-1.1-0.7-1.7-0.9c-0.6-0.2-1.3-0.3-2-0.3
		C8.1,1.7,7,1.9,6.2,2.4C5.3,2.9,4.5,3.5,4,4.3C3.4,5.1,3,5.9,2.7,6.9c-0.3,1-0.4,2-0.4,3c0,1,0.1,2,0.4,3C3,14,3.4,14.8,4,15.6
		c0.6,0.8,1.3,1.4,2.2,1.9s2,0.7,3.2,0.7c0.9,0,1.7-0.2,2.4-0.5c0.7-0.3,1.3-0.7,1.8-1.3c0.5-0.5,0.9-1.2,1.2-1.9
		c0.3-0.7,0.5-1.5,0.6-2.4h1.8c-0.1,1.2-0.4,2.2-0.8,3.1c-0.4,0.9-1,1.7-1.6,2.4c-0.7,0.6-1.5,1.1-2.4,1.5c-0.9,0.4-1.9,0.5-3,0.5
		c-1.5,0-2.8-0.3-3.9-0.8c-1.1-0.5-2-1.2-2.8-2.1c-0.7-0.9-1.3-1.9-1.7-3.1s-0.6-2.4-0.6-3.7c0-1.3,0.2-2.5,0.6-3.7
		C1.4,5.1,2,4,2.7,3.1C3.4,2.2,4.4,1.5,5.5,1c1.1-0.5,2.4-0.8,3.9-0.8c0.9,0,1.8,0.1,2.6,0.4c0.9,0.3,1.6,0.7,2.3,1.2
		C15,2.2,15.6,2.9,16,3.6c0.5,0.8,0.8,1.6,0.9,2.6h-1.8C15,5.5,14.7,4.9,14.3,4.3z"/>
	<path id="XMLID_8_" class="st0" d="M21.8,0.6v18.8H20V0.6H21.8z"/>
	<path id="XMLID_10_" class="st0" d="M27,15.6c0.3,0.6,0.7,1.2,1.3,1.6s1.2,0.7,2,0.8c0.8,0.2,1.6,0.2,2.4,0.2c0.5,0,1-0.1,1.6-0.2
		c0.6-0.1,1.1-0.4,1.6-0.7c0.5-0.3,0.9-0.7,1.2-1.2c0.3-0.5,0.5-1.1,0.5-1.7c0-0.5-0.1-1-0.4-1.4s-0.5-0.7-0.9-1
		c-0.4-0.3-0.8-0.5-1.2-0.6c-0.5-0.2-0.9-0.3-1.3-0.4l-4.2-1c-0.5-0.1-1.1-0.3-1.6-0.5c-0.5-0.2-1-0.5-1.4-0.8
		c-0.4-0.4-0.7-0.8-0.9-1.3c-0.2-0.5-0.4-1.1-0.4-1.9c0-0.5,0.1-1,0.3-1.6s0.5-1.2,1-1.7c0.5-0.5,1.1-1,2-1.4
		c0.8-0.4,1.9-0.6,3.2-0.6c0.9,0,1.8,0.1,2.7,0.4c0.8,0.2,1.6,0.6,2.2,1.1c0.6,0.5,1.1,1.1,1.5,1.8S38.8,5,38.8,6H37
		c0-0.7-0.2-1.3-0.5-1.9c-0.3-0.5-0.7-1-1.1-1.3c-0.5-0.4-1-0.6-1.6-0.8c-0.6-0.2-1.2-0.3-1.9-0.3c-0.6,0-1.2,0.1-1.8,0.2
		c-0.6,0.1-1.1,0.3-1.5,0.6c-0.4,0.3-0.8,0.7-1,1.1c-0.3,0.5-0.4,1.1-0.4,1.8c0,0.4,0.1,0.8,0.2,1.1c0.1,0.3,0.4,0.6,0.6,0.8
		c0.3,0.2,0.6,0.4,0.9,0.6c0.3,0.1,0.7,0.3,1.1,0.3l4.6,1.1c0.7,0.2,1.3,0.4,1.9,0.6c0.6,0.3,1.1,0.6,1.6,0.9
		c0.4,0.4,0.8,0.8,1.1,1.4c0.3,0.5,0.4,1.2,0.4,2c0,0.2,0,0.5-0.1,0.8c0,0.4-0.1,0.7-0.3,1.1c-0.2,0.4-0.4,0.8-0.7,1.2
		c-0.3,0.4-0.7,0.8-1.3,1.1c-0.5,0.3-1.2,0.6-2,0.8c-0.8,0.2-1.7,0.3-2.8,0.3c-1.1,0-2.1-0.1-3.1-0.4c-0.9-0.3-1.8-0.6-2.4-1.2
		s-1.2-1.2-1.5-2c-0.4-0.8-0.5-1.8-0.5-3h1.8C26.6,14.1,26.7,14.9,27,15.6z"/>
</g>
<g id="XMLID_44_">
	<path id="XMLID_46_" class="st1" d="M109.7,6.6c0.4,0.1,0.8,0.3,1.2,0.4c1.6,0.5,3.2,1.1,4.5,2c0.5,0.3,0.9,0.8,1.3,1.2
		c0.5,0.5,0.9,1.1,1.2,1.8c0.7,1.6,1.3,3.2,1.6,4.9c0,0.2,0,0.4,0,0.5c0,0-0.1,0-0.1,0c-0.1-0.2-0.2-0.3-0.4-0.5
		c-1.3-1.8-2.6-3.5-3.8-5.3c-0.2-0.3-0.5-0.6-0.7-0.8c-0.8-0.7-1.8-1.2-2.8-1.5c-1.5-0.5-3.1-0.7-4.7-0.7c-1.3,0-2.6-0.1-3.9-0.1
		c-0.7,0-1.4,0.1-2.1,0.2c-2,0.3-4,0.8-5.9,1.3c-1.3,0.4-2.6,0.8-3.9,1.3c-0.3,0.1-0.5,0.1-0.8,0.2c-0.5,0.1-1,0.3-1.5,0.4
		c-0.7,0.1-1.5,0.2-2.2,0.3c-0.4,0.1-0.9,0.1-1.3,0.2c-0.3,0-0.4,0.2-0.6,0.5c-0.3,0.6-0.6,1.2-1,1.8c-0.4,0.6-0.8,1-1.5,1.3
		c-1.6,0.7-3.3,0.1-4.1-1.5c-0.2-0.3-0.3-0.6-0.4-1c0-0.1-0.2-0.2-0.3-0.2c-1.6,0.1-3.3,0.3-4.9,0.4c-0.4,0-0.5,0.2-0.7,0.6
		c-0.3,0.9-0.6,1.8-1,2.7c-0.5,1-1.4,1.7-2.4,2.2c-0.3,0.1-0.6,0.2-0.9,0.2c-2.5,0.1-5,0.3-7.5,0.4c-0.1,0-0.3,0-0.4,0
		c-0.2,0-0.4-0.1-0.6-0.1C59,19.5,59,19.3,58.9,19c0-0.2,0-0.3-0.2-0.3c-0.3,0-0.4-0.2-0.5-0.4c-0.2-0.5-0.3-0.9-0.5-1.4
		c-0.1-0.2-0.1-0.3-0.4-0.2c-1.1,0.1-2.1,0.1-3.2,0.2c-1.3,0.1-2.6,0.2-3.9-0.4c-0.2-0.1-0.3-0.2-0.3-0.4c0-0.3,0-0.7,0-1
		c0-0.1,0.1-0.2,0.2-0.3c0.6-0.5,1.3-0.7,2.1-0.7c1.4-0.1,2.9-0.2,4.3-0.2c0.2,0,0.3,0,0.4,0c-0.1-0.7-0.2-1.4-0.4-2.1
		c0-0.2,0-0.4,0.2-0.5c0.1,0,0.2-0.2,0.2-0.3c0-0.2-0.1-0.4-0.1-0.6c-0.1-0.2-0.2-0.4-0.2-0.6c0-0.8,0-1.7,0-2.5
		c0-0.1-0.1-0.2-0.1-0.3c-0.1,0.1-0.1,0.1-0.2,0.2c-0.1,0.1-0.1,0.2-0.2,0.2c-0.1,0-0.1-0.1-0.2-0.1c-0.1-0.1-0.2-0.1-0.3-0.2
		c-0.1,0-0.3,0-0.4,0c-1.2,0-2.5,0.1-3.7,0.1c-0.6,0-1.2-0.1-1.7-0.4c-0.2-0.1-0.4-0.3-0.4-0.6c0-0.4-0.1-0.7-0.1-1.1
		c0-0.1,0-0.2,0.1-0.2c0.3-0.1,0.5-0.2,0.8-0.2c1.5-0.4,3-0.4,4.5-0.4c0.7,0,1.3-0.1,2-0.1c0.2,0,0.4-0.2,0.4-0.4
		c0-0.3,0.1-0.6,0.2-0.9c0.1-0.2,0.3-0.5,0.5-0.6c0.3-0.2,0.5-0.4,0.4-0.8c0-0.3,0.1-0.5,0.4-0.5c0.5-0.1,1-0.2,1.5-0.3
		c2.1-0.1,4.2-0.2,6.3-0.3c0.9,0,1.9-0.2,2.7,0.4c0,0,0,0,0,0c0.3,0.2,0.5,0.3,0.8,0.5c0.2,0.2,0.4,0.5,0.6,0.8
		c0.7,1.3,1.2,2.6,1.7,4c1.4-0.1,2.8-0.2,4.2-0.2c0.7,0,1-0.3,1.4-0.9c1-1.8,2.2-2.4,4.2-2c0.1,0,0.3,0.1,0.3,0.1
		c0.4,0.4,0.8,0.8,1.2,1.2c0.3,0.5,0.6,1.1,0.8,1.6c0.1,0.1,0.2,0.2,0.2,0.2c0.4,0.1,0.7,0.1,1.1,0.1c1,0,2,0,3,0
		c0.3,0,0.5,0.1,0.7,0.3c0.1,0.1,0.3,0.3,0.4,0.3C90.2,7,90.5,7,90.9,7c2.5-0.2,4.9-0.5,7.4-0.7C99.2,6.2,100.1,6,101,6
		c2,0,3.9,0.2,5.9,0.3c0.6,0,1.1,0,1.7,0.1C109,6.4,109.3,6.5,109.7,6.6z M68.8,0.8c-0.3,0.6-0.9,0.6-1.5,0.6
		c-0.8,0-1.5,0.1-2.3,0.1c-1.3,0-2.5,0.1-3.8,0.1c0.6,2,1.3,4,1.4,6.1c2.8-0.1,5.6-0.3,8.5-0.3c0,0.6,0,1.2,0,1.7
		c0,0.7,0.1,0.7-0.7,0.7c-2.4,0.2-4.9,0.3-7.3,0.4c-0.3,0-0.3,0.1-0.3,0.3c-0.1,1.2-0.2,2.4-0.3,3.7c-0.1,0.6-0.1,1.1-0.2,1.7
		c1.1-0.1,2.1-0.1,3.2-0.2c1.7-0.1,3.5-0.2,5.2-0.3c0.1,0,0.3-0.1,0.3-0.2c0.1-0.3,0.2-0.6,0.3-0.9c0.4-1.4,0.6-2.8,0.6-4.3
		c0-2.4-0.3-4.8-1.2-7.1c-0.2-0.5-0.3-1-0.8-1.2c0,0-0.1-0.1-0.1-0.1C69.6,1.5,69.1,1.2,68.8,0.8z M72.6,13.1c0.1,0,0.2,0,0.4,0
		c0.9-0.1,1.7-0.2,2.6-0.2c1,0,2,0,3.1,0c0.2,0,0.5,0.1,0.7,0.3c0.2,0.1,0.2,0.4,0.1,0.5c-0.1,0.1-0.3,0-0.4-0.1
		c-0.2-0.1-0.3-0.2-0.5-0.3c0,0.2,0,0.2,0,0.3c0.4,1.5,2.2,2.4,3.6,1.7c0.3-0.1,0.5-0.4,0.7-0.6c0.8-0.9,1.5-1.9,1.6-3.2
		c0.1-1.5,0-3-0.3-4.4c0-0.2-0.1-0.4-0.2-0.5c-0.1-0.1-0.2-0.2-0.3-0.2c0,0.1-0.1,0.3-0.1,0.4c0.1,0.4,0.1,0.8,0.2,1.2
		c0.1,0.3,0.1,0.7,0.1,1c-0.3-0.1-0.6-0.1-0.8-0.2c0,0.2,0,0.3,0.1,0.4c0,0.3,0.1,0.6,0.1,0.9c0,0.1-0.1,0.2-0.1,0.2
		c-0.1,0-0.2-0.1-0.2-0.1c-0.1-0.1-0.1-0.2-0.1-0.3c0-0.3-0.1-0.5-0.1-0.8c0-0.2,0-0.5-0.3-0.6c0,0-0.1-0.1-0.1-0.1
		c-0.1-0.3-0.3-0.6-0.4-0.9c-0.3-0.7-0.5-1.3-0.7-2c-0.2-0.6-0.7-1-1.2-1.2c-0.1-0.1-0.2-0.1-0.3-0.2c0.1-0.1,0.2-0.2,0.3-0.2
		c0.6-0.1,1.2-0.1,1.7-0.1c0.1,0,0.2,0,0.2,0.1c0.5,0.5,0.9,0.9,1.4,1.4c0.1,0.1,0.2,0.1,0.2,0.2c0,0,0,0,0.1-0.1
		C83,4.7,82.5,4,81.6,3.6c-0.5-0.3-1.1-0.3-1.7-0.1c-1,0.4-1.4,1.3-2,2.2c0.1,0,0.2,0,0.3,0c0.3,0,0.6,0,0.5-0.4
		c0,0,0.1-0.1,0.2-0.1c0.2,0,0.4,0,0.6,0.1c0.3,0.1,0.3,0.3,0.1,0.5C79.6,5.8,79.4,6,79.2,6c-0.6,0.1-1.2,0.2-1.8,0.3
		c-1.4,0.1-2.9,0.2-4.3,0.3c-0.1,0-0.2,0-0.3,0.1c0,0,0,0.1,0,0.1c0.6,0,1.1,0,1.7,0c0.1,0,0.2-0.1,0.3-0.1c0.1,0,0.3-0.1,0.4,0
		c0.2,0,0.4,0.2,0.5,0.2c1.3,0,2.6-0.2,4,0.1c0.2,0,0.3,0.1,0.4,0.3c0.1,0.4,0.3,0.8,0.4,1.1c0.1,0.1,0.1,0.2,0.2,0.4
		c0,0.1,0,0.2-0.1,0.2c-0.3,0.1-0.3,0.2-0.3,0.4c0,0.1,0,0.3,0,0.4c-1.6,0.1-3.3,0.1-4.9,0.2c1,0.1,1.9,0.1,2.9,0.2
		c0.3,0,0.6,0,0.9,0.1c0.1,0,0.2,0.2,0.2,0.3c-0.1,0-0.2,0.1-0.3,0.1c-0.2,0-0.4,0-0.5,0c-1.7,0-3.4,0-5.1-0.1
		c-0.2,0-0.2,0.1-0.3,0.2c-0.1,0.3-0.2,0.6-0.3,1c-0.1,0.2-0.2,0.3-0.3,0.5C72.7,12.5,72.7,12.8,72.6,13.1z M58.3,16.7
		c0.1,0.3,0.2,0.6,0.3,0.8c0.1,0.3,0.3,0.5,0.6,0.6c0.1,0,0.2,0.2,0.3,0.3c0.1,0.1,0,0.3,0,0.4c0,0.4,0.1,0.4,0.4,0.4
		c0.3,0,0.4-0.1,0.4-0.4c0-0.1,0-0.1,0-0.2c0-0.6,0-0.6,0.6-0.7c0.2-0.1,0.4-0.1,0.4-0.4c0.1-0.4,0.2-0.8,0.2-1.1
		c0.2-1.3,0.3-2.5,0.5-3.8c0.1-0.6,0.1-1.1,0.1-1.7c0-0.3-0.2-0.5-0.5-0.4c-0.1,0-0.2,0-0.3,0c-1.3,0.3-2.7,0.7-4,1
		c-0.2,0-0.2,0.2-0.2,0.3c0.1,0.5,0.2,1,0.3,1.4c0.1,0.3,0.2,0.4,0.5,0.4c0.4,0,0.9,0,1.3,0c0.4,0,0.6,0.2,0.6,0.6
		c0,0.5,0.1,1.1,0.1,1.6c0,0.5-0.1,0.6-0.7,0.7C59,16.7,58.7,16.7,58.3,16.7z M59.7,1.1c-0.5,0-0.8,0.1-0.9,0.6
		c-0.1,0.4-0.2,0.6-0.6,0.7c-0.1,0-0.2,0.1-0.3,0.2c-0.2,0.4-0.3,0.9-0.4,1.4c0.6,0,1.2,0,1.7,0c0.1,0.9,0.2,1.8,0,2.7
		c-0.7,0-1.4,0.1-2,0.1c-0.1,0.8-0.1,1.5-0.2,2.3c0.1,0,0.2,0,0.3-0.1c1-0.3,2-0.7,3-1c0.4-0.1,0.9-0.2,1.3-0.3
		C62,7.8,62,7.8,62,7.6c0-0.3,0-0.7-0.1-1c-0.3-1.5-0.7-2.9-1.2-4.4c-0.1-0.3-0.2-0.4-0.5-0.4c-0.3,0-0.6-0.1-0.9-0.2
		c-0.2-0.1-0.2-0.3,0-0.4C59.5,1.3,59.5,1.2,59.7,1.1z M61,19.4c2.1-0.1,4.3-0.2,6.4-0.3c0.3,0,0.5-0.2,0.5-0.6
		c0-0.3-0.3-0.2-0.4-0.2c-1.4,0-2.7,0.1-4.1,0.1c-0.8,0-1.6,0.1-2.4,0.1C60.9,18.8,60.9,19.1,61,19.4z M87.9,9.3
		C87.9,9.3,87.9,9.4,87.9,9.3c0,0.1,0.1,0.1,0.1,0.1c0.2,0,0.4,0.2,0.3,0.4c0,0.3-0.3,0.2-0.4,0.1c-0.4,0-0.9-0.1-1.3-0.1
		c-0.5,0-0.5,0-0.6,0.4c0,0.1-0.1,0.3-0.1,0.4c0,0.4,0,0.8-0.6,0.9c0.1,0,0.2,0.1,0.3,0.1c1-0.1,2-0.2,3-0.2c0.3,0,0.4-0.2,0.4-0.4
		c0-0.4,0-0.9,0.1-1.3c0-0.2-0.1-0.3-0.3-0.3C88.6,9.3,88.2,9.3,87.9,9.3z M61.2,8.6c-1.2,0.3-2.4,0.7-3.6,1c0,0.4,0.1,0.8,0.1,1.2
		c0,0.2,0.1,0.2,0.3,0.2c1-0.3,1.9-0.6,2.9-0.8c0.1,0,0.2-0.1,0.3-0.1c0.2-0.1,0.3-0.3,0.2-0.5c-0.1-0.2-0.2-0.4-0.2-0.6
		C61.2,8.9,61.2,8.8,61.2,8.6z M51.6,5.3c2.4-0.1,4.9-0.3,7.3-0.4c-0.1-0.6-0.1-0.6-0.6-0.7c-0.1,0-0.1,0-0.2,0
		c-2,0.1-4.1,0.2-6.1,0.3C51.4,4.6,51.3,4.7,51.6,5.3C51.6,5.3,51.6,5.3,51.6,5.3z M52,16.5c0.1,0,0.1,0,0.2,0
		c1.8-0.1,3.6-0.2,5.3-0.3c0.6,0,1.1-0.1,1.7-0.1c0.1,0,0.2-0.1,0.3-0.2c-0.1-0.1-0.1-0.2-0.2-0.3c-0.1,0-0.2,0-0.2,0
		c-1.1,0-2.1,0-3.2,0.1c-1.3,0.1-2.5,0.1-3.8,0.2C52.1,16.1,52,16.3,52,16.5z M58.9,5.7c-0.1,0-0.1,0-0.2,0
		c-1.6,0.1-3.2,0.1-4.8,0.2c-0.8,0-1.5,0.1-2.3,0.2c-0.1,0-0.2,0.2-0.3,0.3c0.1,0.1,0.2,0.2,0.3,0.1c1.6,0,3.1-0.1,4.7-0.1
		c0.7,0,1.3,0,2-0.1C58.8,6.3,58.9,6.1,58.9,5.7z M62,17.7c0,0,0,0.1,0,0.1c0.3,0,0.6,0,1,0c0.2,0,0.4,0,0.5,0.1
		c0.2,0.3,0.5,0.3,0.8,0.3c1.7-0.1,3.4-0.2,5.1-0.3c0.3,0,0.5-0.1,0.5-0.5C67.3,17.4,64.6,17.5,62,17.7z M97.9,7.4
		c0,0,0,0.1,0.1,0.1c0.4-0.1,0.8-0.3,1.3-0.4c0.9-0.2,1.8-0.4,2.7-0.4c0.8,0,1.6,0.1,2.4,0.1c1.2,0,2.4,0.1,3.6,0.1
		c0.4,0,0.9,0.1,1.4-0.2c-0.1,0-0.2-0.1-0.3-0.1c-1.6-0.1-3.3-0.2-4.9-0.3c-1.8-0.2-3.5,0-5.1,0.7C98.6,7.2,98.3,7.3,97.9,7.4z
		 M74.5,8.9c0.2,0,0.3,0,0.4,0c1.2,0,2.3-0.1,3.5-0.2c0.4,0,0.8-0.1,1.1-0.2c0.1,0,0.2-0.2,0.3-0.3c-0.1,0-0.2-0.1-0.3-0.1
		c-0.4,0-0.8,0.1-1.2,0.1c-0.3,0-0.7,0.1-1,0.1c-0.9-0.1-1.9-0.1-2.8,0c-0.1,0-0.2,0.1-0.2,0.2C74.4,8.8,74.5,8.9,74.5,8.9z
		 M70,16.5c0,0,0-0.1,0-0.1c0,0-0.1,0-0.1,0c-1,0-2,0-3.1,0c-1.2,0-2.5,0-3.7,0.2c-0.3,0.1-0.6,0.1-0.9,0.2c0,0,0,0.1,0,0.1
		C64.8,16.8,67.4,16.6,70,16.5z M79.7,7.7c-0.2-0.1-0.3-0.3-0.4-0.4c-0.3-0.1-0.6-0.2-0.9-0.2c-0.7,0-1.4-0.1-2.1-0.1
		c-0.1,0-0.2,0.1-0.2,0.1c0,0.1,0,0.2,0.1,0.3c0.1,0.1,0.2,0.1,0.3,0.1c0.3,0,0.6,0,0.9,0c0.2,0,0.5-0.1,0.7,0.2c0,0,0.1,0,0.2,0
		C78.6,7.8,79.1,7.7,79.7,7.7z M52.2,15.5C52.2,15.5,52.2,15.6,52.2,15.5c0.8,0.3,6.8-0.1,7.3-0.4C57.1,15.2,54.7,15.4,52.2,15.5z
		 M52.2,14.9c0.9,0.2,6.8-0.2,7.2-0.4C57,14.5,54.6,14.6,52.2,14.9z M51.6,5.8c2.4,0,4.7-0.1,7.1-0.3C58.1,5.3,52.2,5.6,51.6,5.8z
		 M90.5,8.1C90.5,8.1,90.5,8.2,90.5,8.1c0.2,0,0.4,0,0.5,0c1.2-0.3,2.4-0.6,3.6-0.9c0.7-0.2,1.5-0.3,2.2-0.4c0.1,0,0.2-0.1,0.3-0.1
		c0,0,0-0.1,0-0.1C94.9,7,92.7,7.5,90.5,8.1z M73.3,7.3c0,0,0,0.1,0,0.1c0.1,0.1,0.2,0.1,0.3,0.2c0.2,0.1,0.5,0.2,0.7,0.4
		c0.3,0.2,0.7,0.1,0.9-0.1c-0.1,0-0.2,0-0.3,0c-0.1,0-0.2-0.1-0.3-0.1c0.1-0.1,0.2-0.2,0.3-0.3c0.2-0.1,0.4-0.2,0.7-0.3
		C74.8,7.1,74.1,7.2,73.3,7.3z M86.7,6.9C86.9,7,87,7.1,87.1,7.2c0.2,0.1,0.4,0.1,0.5,0.1c0.2,0,0.4,0,0.7,0c0.2,0,0.3,0.1,0.5,0.2
		c0,0,0.1,0,0.1,0C89,7.5,89,7.4,89,7.3c0-0.3-0.3-0.5-0.6-0.5C87.9,6.8,87.3,6.8,86.7,6.9z M78.3,9.2c-1.3,0-2.5,0-3.8,0.2
		C75.8,9.5,77.1,9.4,78.3,9.2z M87.2,8.1c0.4,0,0.7,0,1-0.1c0.1,0,0.2-0.2,0.2-0.2c0-0.1-0.1-0.2-0.2-0.2c-0.3,0-0.7,0-1,0
		c-0.1,0-0.2,0.1-0.2,0.2C87,7.9,87.1,8,87.2,8.1z M85.4,7.9C85.4,7.9,85.4,7.9,85.4,7.9c0.2,0.1,0.2,0.4,0.5,0.3
		c0,0,0.1,0.1,0.1,0.1c0.1,0.1,0.1,0.2,0.2,0.2c0.2,0,0.5,0,0.7,0c0,0,0,0,0-0.1C86.4,8.2,85.9,8.1,85.4,7.9z M85.2,9.7
		c-0.1-0.4-0.2-0.9-0.3-1.3C84.7,8.9,84.8,9.4,85.2,9.7z M79.7,9.3c-0.6-0.2-0.8,0.3-1.3,0.3C78.9,9.5,79.3,9.6,79.7,9.3z
		 M84.9,11.4C85,11.4,85,11.3,84.9,11.4c0.1-0.5,0.1-1-0.1-1.4c0,0-0.1,0-0.1,0C84.8,10.4,84.9,10.9,84.9,11.4z M85.8,7.4
		c0.4,0.2,0.5,0.1,0.6-0.3C86.1,7.2,86,7.3,85.8,7.4z M88.7,8.5c0,0,0-0.1,0-0.1c-0.3,0.1-0.5,0.1-0.8,0.2c0,0,0,0.1,0,0.1
		C88.2,8.7,88.5,8.6,88.7,8.5z M68.4,18.5c0,0,0.1,0.1,0.1,0.1c0.1-0.1,0.2-0.2,0.2-0.4c0,0-0.1-0.1-0.1-0.1
		C68.6,18.3,68.5,18.4,68.4,18.5z"/>
	<path id="XMLID_1_" class="st1" d="M70.3,15.3c-0.2,0.1-0.5,0.1-0.7,0.2c-2,0.3-4,0.5-6,0.5c-0.3,0-0.6-0.1-0.9-0.1
		c-0.1,0-0.2-0.1-0.3-0.2c0.1-0.1,0.2-0.2,0.3-0.2c0.6-0.1,1.1-0.1,1.7-0.1c1.8-0.1,3.6-0.1,5.3-0.2C69.9,15.1,70.1,15.2,70.3,15.3
		C70.3,15.2,70.3,15.3,70.3,15.3z"/>
</g>
</svg>
