<?xml version="1.0" encoding="utf-8"?>
<!-- Generator: Adobe Illustrator 16.0.0, SVG Export Plug-In . SVG Version: 6.00 Build 0)  -->
<!DOCTYPE svg PUBLIC "-//W3C//DTD SVG 1.1//EN" "http://www.w3.org/Graphics/SVG/1.1/DTD/svg11.dtd">
<svg version="1.1" id="Ebene_1" xmlns="http://www.w3.org/2000/svg" xmlns:xlink="http://www.w3.org/1999/xlink" x="0px" y="0px"
	 width="120px" height="30px" viewBox="0 0 280 100" enable-background="new 0 0 180 100" xml:space="preserve">
<g>
	<path fill-rule="evenodd" clip-rule="evenodd" d="M227.895,5.842c1.597,0.152,3.193,0.309,4.792,0.454
		c6.232,0.566,12.402,1.425,18.251,3.825c2.063,0.847,3.767,2.223,5.57,3.5c2.246,1.59,4.148,3.444,5.774,5.599
		c3.91,5.181,7.356,10.649,9.895,16.649c0.26,0.616,0.362,1.3,0.537,1.952c-0.113,0.069-0.225,0.139-0.338,0.208
		c-0.55-0.467-1.113-0.922-1.65-1.405c-6.094-5.491-12.17-11-18.29-16.462c-1.026-0.917-2.158-1.782-3.375-2.408
		c-3.645-1.873-7.551-2.948-11.631-3.34c-6.041-0.581-12.019-0.189-17.966,1.066c-4.783,1.01-9.632,1.715-14.406,2.766
		c-2.538,0.559-4.999,1.506-7.461,2.375c-7.205,2.546-13.996,5.965-20.74,9.556c-4.5,2.396-8.869,4.964-13.189,7.646
		c-0.853,0.529-1.798,0.907-2.705,1.346c-1.779,0.86-3.518,1.821-5.35,2.544c-2.595,1.024-5.258,1.875-7.894,2.794
		c-1.551,0.54-3.118,1.033-4.652,1.613c-1.032,0.39-1.452,1.075-1.689,2.307c-0.485,2.505-1.402,4.94-2.283,7.351
		c-0.862,2.357-2.292,4.35-4.338,5.879c-5.193,3.881-12.099,2.978-16.083-2.148c-0.803-1.034-1.515-2.143-2.35-3.147
		c-0.237-0.285-0.833-0.539-1.154-0.442c-5.934,1.782-11.844,3.638-17.774,5.428c-1.33,0.401-1.794,1.135-1.951,2.542
		c-0.398,3.594-0.835,7.212-1.671,10.723c-1,4.198-3.855,7.308-7.077,10.009c-0.877,0.734-2.113,1.137-3.25,1.447
		c-9.112,2.49-18.241,4.921-27.365,7.369c-0.459,0.124-0.92,0.238-1.381,0.356c-0.75,0-1.499,0-2.25,0
		c-0.364-0.799-0.763-1.585-1.082-2.402c-0.219-0.56-0.421-1.133-1.147-0.932c-1.008,0.279-1.571-0.242-2.031-0.983
		c-0.947-1.525-1.904-3.046-2.783-4.61c-0.379-0.675-0.737-0.832-1.507-0.617c-3.883,1.089-7.786,2.106-11.685,3.14
		c-4.726,1.251-9.406,2.801-14.427,1.714c-0.814-0.176-1.316-0.45-1.498-1.233c-0.278-1.201-0.586-2.397-0.766-3.612
		c-0.059-0.396,0.129-0.945,0.399-1.252c1.882-2.143,4.29-3.495,6.998-4.265c5.17-1.472,10.364-2.863,15.547-4.291
		c0.555-0.153,1.104-0.328,1.604-0.478c-1.011-2.547-1.972-4.974-2.939-7.4c-0.297-0.746-0.226-1.332,0.472-1.874
		c0.28-0.218,0.503-0.818,0.409-1.144c-0.225-0.774-0.629-1.502-1.009-2.223c-0.372-0.707-0.995-1.336-1.173-2.079
		c-0.742-3.082-1.348-6.195-2.034-9.291c-0.079-0.355-0.35-0.668-0.531-1c-0.206,0.328-0.407,0.661-0.62,0.984
		c-0.19,0.29-0.339,0.696-0.61,0.815c-0.202,0.088-0.568-0.203-0.863-0.319c-0.379-0.15-0.759-0.41-1.141-0.415
		c-0.55-0.008-1.111,0.14-1.654,0.274c-4.494,1.112-8.987,2.232-13.478,3.357c-2.2,0.552-4.372,0.438-6.528-0.222
		c-0.908-0.277-1.588-0.763-1.874-1.743c-0.393-1.347-0.854-2.675-1.285-4.01c0-0.3,0-0.6,0-0.9
		c0.904-0.512,1.795-1.049,2.715-1.532c5.119-2.693,10.696-3.948,16.276-5.221c2.397-0.546,4.753-1.278,7.118-1.96
		c0.868-0.25,1.188-0.84,1.112-1.794c-0.094-1.189-0.146-2.424,0.079-3.582c0.181-0.936,0.604-1.987,1.267-2.629
		c0.991-0.962,1.333-1.917,0.995-3.202c-0.269-1.024,0.106-1.781,1.072-2.189c1.751-0.739,3.466-1.63,5.288-2.129
		c7.599-2.081,15.215-4.11,22.861-6.009c3.376-0.839,6.775-2.403,10.344-0.657c0.033,0.016,0.076,0.007,0.11,0.021
		c1.077,0.457,2.252,0.77,3.202,1.414c1.008,0.682,1.886,1.608,2.677,2.548c3.449,4.096,6.443,8.516,9.423,13.359
		c5.008-1.342,10.162-2.853,15.387-4.068c2.556-0.595,3.625-1.859,4.357-4.416c2.126-7.428,6.177-10.688,13.958-10.496
		c0.441,0.011,0.965,0.017,1.308,0.242c1.78,1.169,3.68,2.232,5.218,3.674c1.617,1.516,2.856,3.431,4.299,5.14
		c0.272,0.323,0.734,0.718,1.088,0.698c1.378-0.077,2.762-0.235,4.119-0.495c3.704-0.71,7.398-1.474,11.09-2.246
		c1.066-0.223,1.928-0.114,2.745,0.747c0.404,0.425,1.183,0.731,1.77,0.699c1.295-0.072,2.622-0.247,3.854-0.635
		c8.869-2.791,17.719-5.64,26.572-8.483c3.271-1.05,6.463-2.49,9.811-3.126c7.23-1.376,14.54-2.338,21.813-3.493
		c2.091-0.332,4.171-0.744,6.255-1.119C224.896,5.842,226.396,5.842,227.895,5.842z M73.063,16.954
		c-0.757,2.526-2.828,3.011-4.884,3.543c-2.783,0.719-5.554,1.487-8.338,2.202c-4.548,1.168-9.104,2.309-13.777,3.492
		c3.848,6.959,7.92,13.709,10.089,21.365c10.318-2.571,20.407-5.571,30.833-7.712c0.432,2.279,0.872,4.357,1.209,6.451
		c0.437,2.711,0.713,2.39-2.018,3.166c-8.8,2.498-17.618,4.93-26.444,7.334c-0.917,0.25-1.056,0.61-0.939,1.474
		c0.619,4.557,1.195,9.121,1.738,13.688c0.254,2.138,0.397,4.291,0.6,6.531c3.946-1.058,7.798-2.094,11.65-3.124
		c6.276-1.677,12.558-3.339,18.826-5.05c0.411-0.113,0.945-0.536,1.037-0.91c0.277-1.119,0.434-2.281,0.508-3.434
		c0.355-5.445-0.068-10.805-1.292-16.154c-2.037-8.893-5.047-17.358-10.099-25.007c-1.045-1.583-1.848-3.502-4.07-3.906
		c-0.154-0.028-0.336-0.203-0.406-0.354C76.471,18.777,74.748,18.085,73.063,16.954z M96.895,58.998
		c0.463-0.08,0.911-0.108,1.328-0.235c3.145-0.956,6.252-2.049,9.432-2.864c3.718-0.955,7.485-1.735,11.259-2.443
		c0.887-0.167,1.932,0.124,2.815,0.448c0.759,0.278,1.125,1.122,0.716,1.854c-0.146,0.263-1.031,0.215-1.555,0.14
		c-0.594-0.083-1.16-0.357-1.986-0.628c0.144,0.568,0.167,0.9,0.304,1.174c2.674,5.301,9.949,7.009,14.588,3.333
		c0.919-0.728,1.534-1.892,2.16-2.931c2.386-3.97,3.873-8.189,3.186-12.912c-0.807-5.536-2.512-10.832-4.453-16.057
		c-0.231-0.623-0.546-1.26-0.985-1.745c-0.312-0.346-0.897-0.446-1.36-0.656c-0.031,0.478-0.212,1.007-0.068,1.423
		c0.506,1.444,1.141,2.843,1.696,4.271c0.452,1.164,0.861,2.343,1.36,3.711c-1.178,0-2.126,0-3.19,0
		c0.217,0.617,0.389,1.066,0.531,1.525c0.344,1.104,0.706,2.204,0.982,3.324c0.061,0.249-0.127,0.729-0.332,0.826
		c-0.209,0.099-0.643-0.067-0.863-0.253c-0.304-0.256-0.573-0.61-0.727-0.976c-0.388-0.928-0.698-1.887-1.048-2.832
		c-0.326-0.879-0.397-1.979-1.743-1.984c-0.137,0-0.3-0.215-0.409-0.361c-0.767-1.027-1.577-2.028-2.273-3.102
		c-1.465-2.257-2.844-4.569-4.305-6.829c-1.259-1.946-3.15-3.001-5.338-3.607c-0.417-0.116-0.798-0.366-1.195-0.554
		c0.326-0.309,0.603-0.778,0.989-0.901c2.064-0.654,4.15-1.237,6.242-1.799c0.28-0.076,0.689,0.026,0.94,0.193
		c2.048,1.365,4.071,2.77,6.109,4.152c0.337,0.229,0.708,0.41,1.065,0.612c0.047-0.085,0.095-0.171,0.144-0.256
		c-2.457-2.307-5.035-4.43-8.45-5.228c-2.164-0.505-4.247-0.325-6.141,0.922c-3.449,2.27-4.19,6.042-5.473,9.682
		c0.485-0.107,0.776-0.157,1.058-0.235c0.998-0.278,2.04-0.5,1.654-1.979c-0.046-0.178,0.317-0.633,0.55-0.682
		c0.684-0.147,1.407-0.25,2.1-0.192c0.979,0.082,1.396,0.871,0.848,1.68c-0.448,0.661-1.04,1.376-1.738,1.687
		c-2.038,0.907-4.125,1.736-6.256,2.392c-5.139,1.58-10.313,3.04-15.47,4.56c-0.384,0.113-0.743,0.315-1.114,0.476
		c0.042,0.137,0.083,0.274,0.125,0.411c2.118-0.396,4.241-0.766,6.348-1.213c0.346-0.073,0.586-0.553,0.934-0.726
		c0.439-0.217,0.935-0.42,1.412-0.437c0.708-0.024,1.453,0.294,2.128,0.169c4.861-0.898,9.515-2.814,14.555-2.873
		c0.829-0.01,1.153,0.164,1.533,0.868c0.716,1.33,1.596,2.573,2.434,3.835c0.287,0.433,0.724,0.78,0.947,1.236
		c0.121,0.246,0.038,0.851-0.129,0.933c-0.876,0.431-0.743,1.116-0.592,1.827c0.113,0.542,0.256,1.079,0.353,1.475
		c-5.988,1.543-11.927,3.073-17.864,4.603c3.644-0.451,7.238-1.113,10.842-1.724c1.177-0.199,2.377-0.34,3.567-0.345
		c0.354-0.001,0.71,0.551,1.066,0.849c-0.302,0.25-0.568,0.627-0.913,0.724c-0.642,0.179-1.337,0.153-1.996,0.285
		c-6.264,1.254-12.524,2.526-18.788,3.785c-0.554,0.111-0.774,0.368-0.817,0.973c-0.091,1.266-0.272,2.53-0.491,3.78
		c-0.113,0.647-0.546,1.263-0.555,1.897C96.562,56.581,96.764,57.692,96.895,58.998z M47.105,83.425
		c0.592,1.027,1.092,1.932,1.629,2.816c0.643,1.058,1.552,1.63,2.836,1.75c0.47,0.043,0.979,0.55,1.306,0.972
		c0.279,0.361,0.328,0.902,0.473,1.365c0.428,1.382,0.647,1.525,1.874,1.215c1.198-0.303,1.423-0.675,1.182-1.955
		c-0.041-0.22-0.087-0.441-0.116-0.663c-0.273-2.108-0.283-2.131,1.623-3.08c0.704-0.349,1.173-0.809,1.188-1.606
		c0.025-1.458,0.116-2.923,0-4.372c-0.376-4.737-0.801-9.472-1.275-14.199c-0.209-2.08-0.534-4.153-0.902-6.212
		c-0.223-1.248-0.93-1.601-2.105-1.236c-0.355,0.111-0.716,0.224-1.047,0.392c-4.604,2.327-9.199,4.672-13.81,6.984
		c-0.633,0.318-0.669,0.749-0.457,1.287c0.67,1.701,1.338,3.403,2.055,5.086c0.433,1.016,1.236,1.3,2.305,1.036
		c1.631-0.403,3.271-0.773,4.917-1.117c1.505-0.314,2.288,0.125,2.709,1.608c0.541,1.902,1.036,3.821,1.465,5.751
		c0.412,1.853-0.007,2.494-1.856,3.056C49.826,82.691,48.538,83.026,47.105,83.425z M39.928,25.25
		c-1.928,0.234-2.869,1.186-2.813,2.735c0.049,1.381-0.208,2.493-1.552,3.191c-0.349,0.182-0.71,0.665-0.757,1.048
		c-0.212,1.715-0.313,3.445-0.464,5.288c2.3-0.483,4.331-0.91,6.404-1.346c1.015,3.364,2.273,6.532,2.298,10.058
		c-2.487,0.676-4.92,1.336-7.375,2.003c0.377,2.926,0.742,5.766,1.12,8.697c0.371-0.187,0.703-0.336,1.019-0.515
		c3.475-1.981,6.93-4,10.429-5.938c1.498-0.83,3.054-1.577,4.647-2.202c0.686-0.269,0.922-0.58,0.743-1.199
		c-0.352-1.215-0.692-2.442-1.165-3.613c-2.12-5.245-4.789-10.212-7.704-15.053c-0.532-0.882-0.979-1.328-2.216-0.879
		c-0.987,0.358-2.266,0.126-3.362-0.101c-0.893-0.185-0.92-0.893-0.185-1.452C39.228,25.797,39.458,25.615,39.928,25.25z
		 M59.017,91.087c7.787-2.094,15.488-4.163,23.188-6.234c1.068-0.289,1.632-1.27,1.257-2.466c-0.319-1.016-1.188-0.531-1.797-0.385
		c-4.933,1.177-9.855,2.391-14.778,3.609c-2.884,0.714-5.761,1.455-8.735,2.207C58.456,88.967,58.729,90.001,59.017,91.087z
		 M149.813,32.946c0.018,0.109,0.034,0.217,0.051,0.326c0.185-0.013,0.37-0.019,0.553-0.039c0.893-0.099,1.521,0.253,1.564,1.172
		c0.046,0.976-0.832,0.792-1.399,0.863c-1.596,0.201-3.202,0.312-4.799,0.506c-1.731,0.211-1.848,0.37-1.799,2.106
		c0.016,0.561,0.042,1.124,0.102,1.681c0.161,1.487,0.534,3.039-1.454,3.804c0.458,0.064,0.824,0.088,1.156-0.008
		c3.582-1.043,7.153-2.12,10.738-3.154c0.981-0.284,1.311-0.864,1.135-1.837c-0.298-1.654-0.602-3.308-0.829-4.972
		c-0.106-0.773-0.533-1.087-1.201-1.015C152.354,32.516,151.086,32.751,149.813,32.946z M51.455,51.212
		c-3.987,2.128-8.126,4.339-12.343,6.591c0.477,1.559,0.915,3.015,1.368,4.466c0.192,0.613,0.503,0.821,1.164,0.463
		c3.281-1.785,6.585-3.526,9.876-5.291c0.328-0.176,0.637-0.393,0.94-0.612c0.719-0.518,0.882-1.183,0.427-1.95
		c-0.381-0.644-0.879-1.227-1.179-1.902C51.502,52.516,51.547,51.942,51.455,51.212z M13.608,47.022
		c8.782-2.426,17.649-4.877,26.53-7.331c-0.701-2.132-0.861-2.233-2.714-1.927c-0.22,0.037-0.44,0.084-0.655,0.143
		c-7.419,2.02-14.839,4.036-22.254,6.068c-2.267,0.621-2.324,0.807-1.112,2.885C13.42,46.89,13.46,46.907,13.608,47.022z
		 M23.913,87.751c0.297-0.056,0.481-0.077,0.658-0.126c6.432-1.812,12.863-3.626,19.295-5.438c2.048-0.578,4.106-1.124,6.139-1.752
		c0.345-0.107,0.583-0.561,0.871-0.853c-0.325-0.27-0.618-0.606-0.987-0.783c-0.229-0.109-0.583-0.011-0.866,0.057
		c-3.847,0.924-7.703,1.817-11.535,2.804c-4.584,1.181-9.146,2.447-13.778,3.693C23.778,86.159,23.841,86.894,23.913,87.751z
		 M40.874,42.642c-0.253,0.041-0.511,0.06-0.758,0.124c-5.816,1.521-11.638,3.019-17.442,4.586
		c-2.737,0.739-5.449,1.581-8.139,2.474c-0.377,0.125-0.568,0.81-0.845,1.236c0.444,0.104,0.931,0.383,1.326,0.288
		c5.734-1.386,11.459-2.812,17.18-4.252c2.389-0.601,4.783-1.194,7.139-1.906C40.804,44.747,41.083,44.141,40.874,42.642z
		 M61.505,84.285c0.034,0.155,0.068,0.309,0.101,0.464c1.176-0.25,2.347-0.528,3.529-0.742c0.649-0.116,1.622-0.43,1.923-0.13
		c1.073,1.073,2.164,0.565,3.212,0.275c6.151-1.707,12.282-3.491,18.434-5.196c1.2-0.333,1.824-0.896,1.516-2.321
		C80.609,79.033,70.952,81.264,61.505,84.285z M185.306,18.144c0.098,0.147,0.194,0.295,0.291,0.442
		c1.451-0.819,2.874-1.694,4.359-2.445c3.032-1.532,6.098-3.025,9.472-3.652c2.938-0.545,5.903-0.94,8.849-1.445
		c4.38-0.751,8.764-1.483,13.123-2.344c1.636-0.323,3.389-0.46,4.974-1.685c-0.567,0-0.925-0.043-1.269,0.007
		c-6.061,0.88-12.109,1.867-18.185,2.634c-6.598,0.833-12.716,2.889-18.306,6.501C187.533,16.855,186.41,17.483,185.306,18.144z
		 M100.514,41.989c0.681-0.116,1.13-0.159,1.564-0.27c4.266-1.101,8.537-2.184,12.789-3.338c1.363-0.371,2.698-0.879,3.988-1.455
		c0.367-0.164,0.53-0.786,0.786-1.197c-0.417-0.083-0.885-0.329-1.245-0.22c-1.426,0.431-2.811,0.998-4.227,1.466
		c-1.163,0.385-2.333,0.934-3.525,1.005c-3.552,0.215-6.891,1.253-10.215,2.37c-0.287,0.096-0.572,0.653-0.57,0.995
		C99.86,41.59,100.342,41.833,100.514,41.989z M89.934,73.449c-0.027-0.127-0.055-0.253-0.082-0.379
		c-0.181,0.014-0.365,0.011-0.542,0.045c-3.772,0.743-7.544,1.485-11.314,2.24c-4.537,0.91-9.071,1.846-13.377,3.607
		c-1.081,0.441-2.106,1.018-3.157,1.534c0.055,0.151,0.11,0.301,0.165,0.452C71.062,78.448,80.498,75.949,89.934,73.449z
		 M118.424,33.617c-0.764-0.408-1.308-0.899-1.904-0.973c-1.139-0.14-2.327-0.183-3.458-0.014c-2.654,0.398-5.287,0.934-7.922,1.452
		c-0.275,0.054-0.739,0.429-0.707,0.53c0.108,0.354,0.333,0.746,0.633,0.947c0.278,0.188,0.724,0.248,1.07,0.191
		c1.063-0.172,2.114-0.424,3.168-0.65c0.908-0.195,1.801-0.852,2.735-0.005c0.129,0.116,0.506-0.004,0.755-0.066
		C114.524,34.604,116.251,34.164,118.424,33.617z M23.988,83.713c0.025,0.123,0.049,0.245,0.073,0.368
		c2.935,0.042,24.967-6.097,26.238-7.514C41.529,78.95,32.758,81.332,23.988,83.713z M23.395,81.461
		c3.526-0.163,24.884-5.967,26.153-7.076C40.711,76.302,31.98,78.607,23.395,81.461z M14.079,48.572
		c8.712-1.787,17.284-4.116,25.752-6.836C37.439,41.677,16.041,47.328,14.079,48.572z M158.416,26.487
		c0.04,0.096,0.081,0.192,0.122,0.288c0.604-0.253,1.22-0.482,1.81-0.763c4.18-1.989,8.328-4.048,12.541-5.96
		c2.583-1.172,5.272-2.107,7.899-3.187c0.404-0.166,0.727-0.534,1.087-0.809c-0.075-0.095-0.15-0.189-0.226-0.284
		C173.653,18.805,165.916,22.393,158.416,26.487z M94.935,37.047c0.009,0.153,0.02,0.307,0.029,0.46
		c0.36,0.167,0.706,0.378,1.082,0.491c0.962,0.29,1.954,0.488,2.903,0.812c1.291,0.44,2.53,0.032,3.296-1.208
		c-0.355,0.056-0.689,0.168-1.013,0.146c-0.448-0.032-0.889-0.166-1.333-0.255c0.231-0.438,0.372-0.967,0.71-1.293
		c0.621-0.6,1.356-1.082,2.309-1.817C100.043,35.342,97.489,36.195,94.935,37.047z M143.463,24.898
		c0.828,0.412,1.384,0.833,2.001,0.957c0.67,0.133,1.402,0.048,2.093-0.049c0.811-0.113,1.598-0.429,2.408-0.496
		c0.659-0.054,1.338,0.132,2.009,0.207c0.174,0.02,0.486,0.069,0.501,0.025c0.078-0.227,0.156-0.5,0.095-0.719
		c-0.256-0.932-1.439-1.767-2.459-1.552C147.932,23.729,145.783,24.321,143.463,24.898z M114.745,39.926
		c-4.687,0.904-9.306,2.068-13.751,3.841C105.791,43.257,110.336,41.847,114.745,39.926z M146.212,28.938
		c1.366-0.413,2.56-0.715,3.697-1.159c0.274-0.107,0.566-0.743,0.482-1.029c-0.084-0.294-0.661-0.69-0.948-0.638
		c-1.2,0.22-2.387,0.546-3.54,0.944c-0.246,0.085-0.506,0.671-0.446,0.962C145.528,28.358,145.94,28.628,146.212,28.938z
		 M139.625,29.676c-0.014,0.097-0.028,0.194-0.042,0.292c0.746,0.119,1.269,1.146,2.234,0.468c0.055-0.038,0.315,0.253,0.5,0.356
		c0.302,0.17,0.647,0.478,0.929,0.435c0.858-0.128,1.694-0.397,2.538-0.612c-0.012-0.085-0.025-0.171-0.039-0.256
		C143.705,30.132,141.665,29.904,139.625,29.676z M140.318,36.534c-0.695-1.546-1.39-3.092-2.084-4.639
		C138.002,33.977,138.796,35.739,140.318,36.534z M119.793,39.189c-2.192-0.278-2.825,1.771-4.36,2.114
		C116.902,40.827,118.671,40.96,119.793,39.189z M140.686,42.788c0.101-0.048,0.203-0.096,0.303-0.144
		c-0.427-1.736-0.725-3.521-1.675-5.062c-0.162,0.06-0.324,0.119-0.486,0.178C139.447,39.436,140.067,41.111,140.686,42.788z
		 M140.64,27.673c1.429,0.351,1.898-0.065,1.847-1.413C141.821,26.77,141.23,27.221,140.64,27.673z M152.307,29.504
		c-0.061-0.135-0.123-0.271-0.185-0.406c-0.91,0.424-1.821,0.848-2.732,1.272c0.058,0.125,0.115,0.251,0.171,0.376
		C150.476,30.333,151.393,29.918,152.307,29.504z M85.772,82.138c0.192,0.069,0.384,0.139,0.576,0.209
		c0.192-0.501,0.395-0.999,0.552-1.51c0.01-0.033-0.332-0.174-0.51-0.266C86.184,81.092,85.978,81.616,85.772,82.138z"/>
	<path fill-rule="evenodd" clip-rule="evenodd" d="M90.006,68.813c-0.791,0.378-1.563,0.804-2.377,1.126
		c-7.024,2.792-14.25,4.924-21.652,6.441c-1.09,0.223-2.227,0.256-3.345,0.286c-0.348,0.01-0.704-0.28-1.056-0.434
		c0.273-0.305,0.492-0.773,0.83-0.887c2.015-0.674,4.04-1.336,6.095-1.874c6.463-1.691,12.938-3.337,19.42-4.958
		c0.631-0.159,1.337-0.021,2.009-0.021C89.955,68.6,89.981,68.706,90.006,68.813z"/>
</g>
</svg>
